<svg width="52" height="52" viewBox="0 0 52 52" fill="none" xmlns="http://www.w3.org/2000/svg">
  <path d="M26 47.6673C37.9662 47.6673 47.6666 37.9668 47.6666 26.0007C47.6666 14.0345 37.9662 4.33398 26 4.33398C14.0338 4.33398 4.33331 14.0345 4.33331 26.0007C4.33331 37.9668 14.0338 47.6673 26 47.6673Z" stroke="#c15006" stroke-width="3.25" stroke-miterlimit="10" stroke-linecap="round" stroke-linejoin="round"/>
  <g clip-path="url(#hgc-clip)">
    <path d="M36.8758 19V20.1162C36.8758 21.327 36.1947 22.4432 35.1163 22.992L27.8135 26.7002V19H24.9378V20.1162C24.9378 21.327 24.2566 22.4432 23.1782 22.992L15.8755 26.7002V19H13.0001V33H15.8759V31.8838C15.8759 30.673 16.557 29.5568 17.6354 29.008L24.9382 25.2998V32.9998H27.814V31.8835C27.814 30.6728 28.4951 29.5566 29.5735 29.0078L36.8762 25.2996V32.9996H39.752V19H36.8758Z" fill="#c15006"/>
  </g>
  <defs>
    <clipPath id="hgc-clip">
      <rect width="26.7515" height="14" fill="white" transform="translate(13.0001 19)"/>
    </clipPath>
  </defs>
</svg>
